<?xml version="1.0" encoding="UTF-8"?>
<svg version="1.1" xmlns="http://www.w3.org/2000/svg" width="512" height="512">
<path d="M0 0 C0.93397614 -0.00807175 1.86795227 -0.01614349 2.83023071 -0.02445984 C4.80883956 -0.0382707 6.78747192 -0.04900622 8.76611328 -0.05688477 C10.76358155 -0.06833851 12.76102084 -0.08868384 14.75830078 -0.1184082 C35.39771453 -0.42510379 51.48228478 2.10972462 67.08984375 16.76171875 C77.59890097 27.95960493 81.5277222 41.81645439 81.65234375 56.82421875 C81.6604155 57.75819489 81.66848724 58.69217102 81.67680359 59.65444946 C81.69061445 61.63305831 81.70134997 63.61169067 81.70922852 65.59033203 C81.72068226 67.5878003 81.74102759 69.58523959 81.77075195 71.58251953 C82.07744754 92.22193328 79.54261913 108.30650353 64.890625 123.9140625 C53.69273882 134.42311972 39.83588936 138.35194095 24.828125 138.4765625 C23.89414886 138.48463425 22.96017273 138.49270599 21.99789429 138.50102234 C20.01928544 138.5148332 18.04065308 138.52556872 16.06201172 138.53344727 C14.06454345 138.54490101 12.06710416 138.56524634 10.06982422 138.5949707 C-10.57713725 138.90177845 -26.64005564 136.35946095 -42.26171875 121.71875 C-52.97675214 110.28337824 -56.71640182 96.73120662 -56.7890625 81.44921875 C-56.79476257 80.50954254 -56.80046265 79.56986633 -56.80633545 78.60171509 C-56.81575591 76.61648676 -56.82230765 74.63124301 -56.82617188 72.64599609 C-56.83583884 69.64391972 -56.86687473 66.6425399 -56.8984375 63.640625 C-57.00516192 44.52820037 -54.03146594 28.97484214 -40.28515625 14.71484375 C-28.84845411 4.22154541 -15.22863588 0.12645562 0 0 Z " fill="#000000" transform="translate(243.5859375,186.76171875)"/>
<path d="M0 0 C2.92252991 0.0291152 5.84325403 0.02053167 8.76586914 0.00756836 C27.20385839 0.02754154 42.76503719 2.95637906 56.54516602 16.18530273 C67.67385462 27.81169656 72.04523653 41.10647259 72.02954102 56.98608398 C72.03382614 57.96590744 72.03811127 58.9457309 72.04252625 59.95524597 C72.04823711 62.01670565 72.04879391 64.07818546 72.04443359 66.13964844 C72.04127899 69.26004151 72.06475579 72.37947996 72.09008789 75.49975586 C72.15121574 94.36675423 69.58435715 109.03716615 56.13500977 123.18139648 C44.54516457 134.18798648 31.02338471 138.56967827 15.29907227 138.70483398 C14.3910788 138.71290573 13.48308533 138.72097748 12.5475769 138.72929382 C10.62621948 138.74308819 8.70483802 138.753831 6.78344727 138.76171875 C4.84815113 138.77316925 2.91288481 138.7935093 0.9777832 138.82324219 C-15.12436632 139.07009768 -30.86895582 138.56512718 -44.27124023 128.46655273 C-45.04983398 127.8800293 -45.82842773 127.29350586 -46.63061523 126.68920898 C-58.45390859 116.98855386 -64.64031689 103.41520346 -66.27124023 88.46655273 C-66.57317103 82.97669222 -66.5598398 77.4815831 -66.53198242 71.98510742 C-66.52125863 69.47086477 -66.53193509 66.95733635 -66.54467773 64.44311523 C-66.55763893 52.56523989 -66.39623891 41.07027494 -60.70874023 30.34155273 C-60.35577881 29.66415039 -60.00281738 28.98674805 -59.63916016 28.28881836 C-52.53682535 15.18066051 -41.92629312 6.66742224 -27.72827148 2.26733398 C-18.60235458 -0.20762445 -9.39310366 -0.10207315 0 0 Z " fill="#000000" transform="translate(78.271240234375,186.533447265625)"/>
<path d="M0 0 C0.80367004 -0.0033284 1.60734009 -0.0066568 2.43536377 -0.01008606 C4.12617425 -0.01511738 5.81699454 -0.01749557 7.5078125 -0.01733398 C10.05746332 -0.01951359 12.60667583 -0.03769109 15.15625 -0.05664062 C27.11429699 -0.10063246 38.64557592 0.00118245 49.453125 5.73046875 C50.13052734 6.08343018 50.80792969 6.4363916 51.50585938 6.80004883 C64.61401722 13.90238364 73.12725549 24.51291586 77.52734375 38.7109375 C80.00230219 47.8368544 79.89675089 57.04610533 79.79467773 66.43920898 C79.76556253 69.36173889 79.77414606 72.28246301 79.78710938 75.20507812 C79.76713619 93.64306737 76.83829867 109.20424618 63.609375 122.984375 C51.98298118 134.11306361 38.68820515 138.48444551 22.80859375 138.46875 C21.33885857 138.47517769 21.33885857 138.47517769 19.83943176 138.48173523 C17.77797209 138.4874461 15.71649227 138.4880029 13.6550293 138.48364258 C10.53463623 138.48048797 7.41519777 138.50396477 4.29492188 138.52929688 C-14.5720765 138.59042473 -29.24248842 136.02356614 -43.38671875 122.57421875 C-54.48084621 110.89219735 -58.7779342 97.31505838 -58.91015625 81.484375 C-58.918228 80.55181381 -58.92629974 79.61925262 -58.93461609 78.65843201 C-58.94841101 76.68579947 -58.95915357 74.71314352 -58.96704102 72.74047852 C-58.97850463 70.74984599 -58.99886613 68.75924282 -59.02856445 66.76879883 C-59.26898026 50.62333275 -58.71132752 35.63662752 -48.671875 22.16796875 C-48.04667969 21.32621094 -47.42148438 20.48445313 -46.77734375 19.6171875 C-37.85166108 8.70433985 -24.83469551 2.08395868 -10.9102478 0.38508606 C-7.27342946 0.03232256 -3.65157458 0.00540174 0 0 Z " fill="#000000" transform="translate(245.671875,11.83203125)"/>
<path d="M0 0 C1.46973518 -0.00642769 1.46973518 -0.00642769 2.96916199 -0.01298523 C5.03062166 -0.0186961 7.09210148 -0.0192529 9.15356445 -0.01489258 C12.27395752 -0.01173797 15.39339598 -0.03521477 18.51367188 -0.06054688 C37.38067025 -0.12167473 52.05108217 2.44518386 66.1953125 15.89453125 C77.28943996 27.57655265 81.58652795 41.15369162 81.71875 56.984375 C81.72682175 57.91693619 81.73489349 58.84949738 81.74320984 59.81031799 C81.75700476 61.78295053 81.76774732 63.75560648 81.77563477 65.72827148 C81.78709838 67.71890401 81.80745988 69.70950718 81.8371582 71.69995117 C82.13513715 91.7111517 79.88077306 107.93160713 65.74609375 123.19921875 C51.06555291 136.81668594 34.04010024 138.65807107 14.9440918 138.56152344 C12.41886472 138.55078506 9.89434646 138.56148374 7.36914062 138.57421875 C-10.84074723 138.5906672 -27.01292294 135.73995262 -41.00390625 123.046875 C-55.01608376 108.39991763 -57.03620808 91.61196333 -56.91064453 72.25585938 C-56.89456418 69.3068211 -56.91055728 66.35915295 -56.9296875 63.41015625 C-56.95136374 44.89767423 -54.09232318 29.32973118 -40.80078125 15.484375 C-29.17438743 4.35568639 -15.8796114 -0.01569551 0 0 Z " fill="#000000" transform="translate(243.51953125,361.69921875)"/>
<path d="M0 0 C1.39884178 -0.01210762 1.39884178 -0.01210762 2.82594299 -0.02445984 C4.79857553 -0.03825476 6.77123148 -0.04899732 8.74389648 -0.05688477 C10.73452901 -0.06834838 12.72513218 -0.08870988 14.71557617 -0.1184082 C34.7267767 -0.41638715 50.94723213 1.83797694 66.21484375 15.97265625 C79.81633796 30.63597714 81.67382888 47.64393208 81.57714844 66.71972656 C81.56642464 69.23396922 81.57710111 71.74749763 81.58984375 74.26171875 C81.60280495 86.13959409 81.44140492 97.63455905 75.75390625 108.36328125 C75.40094482 109.04068359 75.0479834 109.71808594 74.68432617 110.41601562 C68.23734106 122.31465188 58.73897465 130.88757036 45.90356445 135.4519043 C35.34110472 138.29518295 25.30889253 138.82696115 14.39697266 138.70483398 C11.55572689 138.67567164 8.71633432 138.68431715 5.875 138.69726562 C-12.40118292 138.67692929 -27.85683465 135.61696999 -41.5 122.51953125 C-52.62868861 110.89313743 -57.00007051 97.5983614 -56.984375 81.71875 C-56.98866013 80.73892654 -56.99294525 79.75910309 -56.99736023 78.74958801 C-57.0030711 76.68812834 -57.0036279 74.62664852 -56.99926758 72.56518555 C-56.99611297 69.44479248 -57.01958977 66.32535402 -57.04492188 63.20507812 C-57.10604973 44.33807975 -54.53919114 29.66766783 -41.08984375 15.5234375 C-29.40782235 4.42931004 -15.83068338 0.13222205 0 0 Z " fill="#000000" transform="translate(418.68359375,186.76171875)"/>
<path d="M0 0 C0.80367004 -0.0033284 1.60734009 -0.0066568 2.43536377 -0.01008606 C4.12617425 -0.01511738 5.81699454 -0.01749557 7.5078125 -0.01733398 C10.05746332 -0.01951359 12.60667583 -0.03769109 15.15625 -0.05664062 C34.65047431 -0.12464968 49.70835752 2.67733836 64.5546875 16.1953125 C75.44715013 27.48730561 79.64406842 41.3474862 79.62890625 56.6875 C79.63319138 57.66732346 79.6374765 58.64714691 79.64189148 59.65666199 C79.64760235 61.71812166 79.64815915 63.77960148 79.64379883 65.84106445 C79.64064422 68.96145752 79.66412102 72.08089598 79.68945312 75.20117188 C79.74976612 93.64449992 77.37724701 108.8416502 64.390625 122.98046875 C52.72833568 133.9832355 38.56972171 138.48431022 22.7734375 138.46875 C21.79124237 138.47303513 20.80904724 138.47732025 19.79708862 138.48173523 C17.73143276 138.48744565 15.66575681 138.48800323 13.60009766 138.48364258 C10.46872067 138.48048448 7.33829171 138.50397737 4.20703125 138.52929688 C2.18750118 138.53157065 0.1679686 138.532273 -1.8515625 138.53125 C-2.77274872 138.54045975 -3.69393494 138.54966949 -4.64303589 138.55915833 C-19.76502563 138.45345257 -33.26713201 132.44203535 -44.125 122.0078125 C-55.09520153 109.77570129 -58.81698807 96.40997292 -58.83984375 80.33984375 C-58.84317215 79.51019104 -58.84650055 78.68053833 -58.84992981 77.82574463 C-58.85496855 76.077683 -58.85733908 74.32961185 -58.85717773 72.58154297 C-58.85935715 69.93961297 -58.87752604 67.29810595 -58.89648438 64.65625 C-58.959731 46.18212845 -56.29483128 30.56256801 -43.671875 16.16796875 C-37.45599087 10.11729085 -30.7136225 6.30310327 -22.671875 3.16796875 C-21.62 2.75546875 -20.568125 2.34296875 -19.484375 1.91796875 C-13.07220138 0.20805578 -6.59513219 0.00975611 0 0 Z " fill="#000000" transform="translate(70.671875,11.83203125)"/>
<path d="M0 0 C1.46973518 -0.00642769 1.46973518 -0.00642769 2.96916199 -0.01298523 C5.03062166 -0.0186961 7.09210148 -0.0192529 9.15356445 -0.01489258 C12.27395752 -0.01173797 15.39339598 -0.03521477 18.51367188 -0.06054688 C37.39080573 -0.12170757 52.02329586 2.45684123 66.19140625 15.8828125 C80.12058066 30.59639434 81.83920783 47.45450303 81.74121094 66.8371582 C81.73047256 69.36238528 81.74117124 71.88690354 81.75390625 74.41210938 C81.77149536 92.75924487 78.91314502 108.06559142 66.04296875 121.92578125 C64.77453125 123.10140625 64.77453125 123.10140625 63.48046875 124.30078125 C62.99191406 124.78289062 62.50335938 125.265 62 125.76171875 C49.18272483 137.7569834 31.4873322 138.80568078 14.84814453 138.63696289 C12.35156103 138.61324412 9.85604391 138.61644452 7.359375 138.62304688 C-11.98994995 138.5894799 -27.024137 135.67816654 -41.74609375 122.2734375 C-52.63855638 110.98144439 -56.83547467 97.1212638 -56.8203125 81.78125 C-56.82459763 80.80142654 -56.82888275 79.82160309 -56.83329773 78.81208801 C-56.8390086 76.75062834 -56.8395654 74.68914852 -56.83520508 72.62768555 C-56.83205047 69.50729248 -56.85552727 66.38785402 -56.88085938 63.26757812 C-56.94117237 44.82425008 -54.56865326 29.6270998 -41.58203125 15.48828125 C-29.93288194 4.49791142 -15.7808121 -0.01559786 0 0 Z " fill="#000000" transform="translate(418.51953125,361.69921875)"/>
<path d="M0 0 C1.47822487 -0.00855011 1.47822487 -0.00855011 2.98631287 -0.01727295 C5.07167494 -0.02670613 7.1570518 -0.03325024 9.24243164 -0.03710938 C12.39822226 -0.04676676 15.55334776 -0.07778655 18.70898438 -0.109375 C37.24703952 -0.20864022 52.46147754 2.0774934 66.68359375 15.140625 C77.6863605 26.80291432 82.18743522 40.96152829 82.171875 56.7578125 C82.17616013 57.74000763 82.18044525 58.72220276 82.18486023 59.73416138 C82.19057065 61.79981724 82.19112823 63.86549319 82.18676758 65.93115234 C82.18360948 69.06252933 82.20710237 72.19295829 82.23242188 75.32421875 C82.23469565 77.34374882 82.235398 79.3632814 82.234375 81.3828125 C82.24358475 82.30399872 82.25279449 83.22518494 82.26228333 84.17428589 C82.15657757 99.29627563 76.14516035 112.79838201 65.7109375 123.65625 C53.20893465 134.86850015 39.60214948 138.31320424 23.26953125 138.40625 C22.47060455 138.41195007 21.67167786 138.41765015 20.84854126 138.42352295 C19.16613055 138.43291101 17.48370197 138.43948206 15.80126953 138.44335938 C13.27342248 138.45302055 10.7464055 138.48408475 8.21875 138.515625 C-8.81162826 138.6290222 -26.59920047 136.33943506 -39.55078125 123.9765625 C-53.62738946 108.15779981 -56.49685231 91.91430639 -56.44458008 71.47973633 C-56.44142507 68.90597936 -56.46493301 66.33338094 -56.49023438 63.75976562 C-56.56377772 44.86230856 -53.41074843 28.78691762 -39.83203125 14.6796875 C-28.36588478 4.17457643 -15.2345476 0.06867724 0 0 Z " fill="#000000" transform="translate(68.12890625,361.796875)"/>
<path d="M0 0 C1.20906258 -0.0049926 1.20906258 -0.0049926 2.44255066 -0.01008606 C4.13755733 -0.01511691 5.83257377 -0.01749558 7.52758789 -0.01733398 C10.08822355 -0.01951655 12.64842487 -0.03770267 15.20898438 -0.05664062 C33.64674809 -0.12190228 48.97872403 2.66188436 62.91796875 15.60546875 C64.09359375 16.87390625 64.09359375 16.87390625 65.29296875 18.16796875 C65.77507812 18.65652344 66.2571875 19.14507813 66.75390625 19.6484375 C76.79239812 30.37484633 79.43995263 44.65406893 79.4609375 58.83984375 C79.4642659 59.64351379 79.4675943 60.44718384 79.47102356 61.27520752 C79.47605488 62.966018 79.47843307 64.65683829 79.47827148 66.34765625 C79.48045109 68.89730707 79.49862859 71.44651958 79.51757812 73.99609375 C79.58558718 93.49031806 76.78359914 108.54820127 63.265625 123.39453125 C51.97363189 134.28699388 38.1134513 138.48391217 22.7734375 138.46875 C21.30370232 138.47517769 21.30370232 138.47517769 19.80427551 138.48173523 C17.74281584 138.4874461 15.68133602 138.4880029 13.61987305 138.48364258 C10.49947998 138.48048797 7.38004152 138.50396477 4.25976562 138.52929688 C-14.18356242 138.58960987 -29.3807127 136.21709076 -43.51953125 123.23046875 C-54.522298 111.56817943 -59.02337272 97.40956546 -59.0078125 81.61328125 C-59.01209763 80.63108612 -59.01638275 79.64889099 -59.02079773 78.63693237 C-59.02650815 76.57127651 -59.02706573 74.50560056 -59.02270508 72.43994141 C-59.01954698 69.30856442 -59.04303987 66.17813546 -59.06835938 63.046875 C-59.07063315 61.02734493 -59.0713355 59.00781235 -59.0703125 56.98828125 C-59.07952225 56.06709503 -59.08873199 55.14590881 -59.09822083 54.19680786 C-58.99537608 39.48410626 -53.30252154 26.00120242 -43.109375 15.41796875 C-30.85253063 3.93838768 -16.45587856 0.02424192 0 0 Z " fill="#000000" transform="translate(420.70703125,11.83203125)"/>
</svg>
